# xmcd
# 
# Track frame offsets:
#     150
#     14441
#     31649
#     46986
#     61243
#     80568
#     93576
#     108636
#     122849
#     137009
#     157512
# 
# Disc length: 2270
# 
# Revision: 0
# Processed by: cddbd v1.5.2PL0 Copyright (c) Steve Scherf et al.
# Submitted via: fre:ac v1.1beta1pre4
# 
DISCID=8208dc0b
DTITLE=Mike McClure - Zero Dark Thirty
DYEAR=2010
DGENRE=Country
TTITLE0=Mother May I?
TTITLE1=Don't Fight It
TTITLE2=Wolves
TTITLE3=A Breakdown
TTITLE4=Daughter of the Devil
TTITLE5=In My Ears
TTITLE6=Down Like A Drop
TTITLE7=Colors Fade to Grey
TTITLE8=Swinging
TTITLE9=Made to Fade
TTITLE10=Down the Road I Go
EXTD=
EXTT0=
EXTT1=
EXTT2=
EXTT3=
EXTT4=
EXTT5=
EXTT6=
EXTT7=
EXTT8=
EXTT9=
EXTT10=
PLAYORDER=
